HIERARCHY
ROOT Hips
{
 OFFSET 0.000000 0.000000 0.000000
 CHANNELS 6 Xposition Yposition Zposition Yrotation Xrotation Zrotation
 JOINT Chest
 {
  OFFSET 0.000000 9.585900 0.002600
  CHANNELS 3 Yrotation Xrotation Zrotation
  JOINT Chest2
  {
   OFFSET 0.000000 9.601200 -0.005300
   CHANNELS 3 Yrotation Xrotation Zrotation
   JOINT Chest3
   {
    OFFSET 0.000000 9.561800 0.000000
    CHANNELS 3 Yrotation Xrotation Zrotation
    JOINT Chest4
    {
     OFFSET 0.000000 9.552100 0.000000
     CHANNELS 3 Yrotation Xrotation Zrotation
     JOINT Neck
     {
      OFFSET 0.000000 14.453000 0.000000
      CHANNELS 3 Yrotation Xrotation Zrotation
      JOINT Head
      {
       OFFSET 0.000000 8.936500 -0.011300
       CHANNELS 3 Yrotation Xrotation Zrotation
       End Site
       {
        OFFSET 0.000000 17.073600 -0.006000
       }
      }
     }
     JOINT RightCollar
     {
      OFFSET -2.921100 9.558500 0.000000
      CHANNELS 3 Yrotation Xrotation Zrotation
      JOINT RightShoulder
      {
       OFFSET -13.519700 0.000000 0.000000
       CHANNELS 3 Yrotation Xrotation Zrotation
       JOINT RightElbow
       {
        OFFSET 0.000000 -29.696600 0.000000
        CHANNELS 3 Yrotation Xrotation Zrotation
        JOINT RightWrist
        {
         OFFSET 0.000000 -24.004700 0.000000
         CHANNELS 3 Yrotation Xrotation Zrotation
         End Site
         {
          OFFSET 0.000000 -17.728500 0.000000
         }
        }
       }
      }
     }
     JOINT LeftCollar
     {
      OFFSET 2.921100 9.558500 0.000000
      CHANNELS 3 Yrotation Xrotation Zrotation
      JOINT LeftShoulder
      {
       OFFSET 13.519700 0.000000 0.000000
       CHANNELS 3 Yrotation Xrotation Zrotation
       JOINT LeftElbow
       {
        OFFSET 0.000000 -29.696600 0.000000
        CHANNELS 3 Yrotation Xrotation Zrotation
        JOINT LeftWrist
        {
         OFFSET 0.000000 -24.004700 0.000000
         CHANNELS 3 Yrotation Xrotation Zrotation
         End Site
         {
          OFFSET 0.000000 -17.728500 0.000000
         }
        }
       }
      }
     }
    }
   }
  }
 }
 JOINT RightHip
 {
  OFFSET -7.771700 -0.012900 -0.001300
  CHANNELS 3 Yrotation Xrotation Zrotation
  JOINT RightKnee
  {
   OFFSET 0.000000 -40.869800 0.001200
   CHANNELS 3 Yrotation Xrotation Zrotation
   JOINT RightAnkle
   {
    OFFSET 0.000000 -39.717900 0.002100
    CHANNELS 3 Yrotation Xrotation Zrotation
    JOINT RightToe
    {
     OFFSET 0.000000 -4.965400 11.033500
     CHANNELS 3 Yrotation Xrotation Zrotation
     End Site
     {
      OFFSET 0.000000 -1.423100 5.872300
     }
    }
   }
  }
 }
 JOINT LeftHip
 {
  OFFSET 7.771700 -0.012900 -0.001300
  CHANNELS 3 Yrotation Xrotation Zrotation
  JOINT LeftKnee
  {
   OFFSET 0.000000 -40.869800 0.001200
   CHANNELS 3 Yrotation Xrotation Zrotation
   JOINT LeftAnkle
   {
    OFFSET 0.000000 -39.717900 0.002100
    CHANNELS 3 Yrotation Xrotation Zrotation
    JOINT LeftToe
    {
     OFFSET 0.000000 -4.965400 11.033500
     CHANNELS 3 Yrotation Xrotation Zrotation
     End Site
     {
      OFFSET 0.000000 -1.423100 5.872300
     }
    }
   }
  }
 }
}
MOTION
Frames: 13
Frame Time: 0.008333
-26.860846 51.935586 27.078760 -179.253091 -30.136455 -0.033678 2.013556 27.408458 -0.645545 0.366667 4.775090 -0.092019 0.577740 7.551319 -0.131739 1.714432 22.254368 -0.169009 -4.431443 17.693732 -5.555293 -3.486256 -6.917343 -4.953991 12.061596 12.149872 15.108470 25.414912 -12.998012 -40.209145 -118.441550 -60.376956 58.537798 -12.513007 -6.507464 -12.990268 -11.892875 12.639606 -18.638245 -32.127558 -9.079077 42.772136 139.816526 -55.397670 -90.816149 19.717743 3.716491 4.539819 -7.805919 -52.295668 -0.984573 -64.797458 81.485112 -73.480959 -4.686040 -7.484681 7.921256 0.475251 -0.379218 0.187270 2.865287 -50.531895 -3.804219 32.673850 83.640494 37.717729 -1.530758 -9.265528 -1.908010 -0.058214 0.482364 -0.038964
-26.855013 51.933334 27.095101 -179.308088 -30.256246 0.004261 2.024634 27.378549 -0.647475 0.366924 4.763120 -0.092380 0.578163 7.533727 -0.132324 1.717815 22.233335 -0.170965 -4.449001 17.661012 -5.510596 -3.514657 -6.954762 -4.900783 12.013446 12.140213 15.122196 25.394366 -12.959661 -40.163987 -118.738531 -60.456082 58.926850 -12.518168 -6.475681 -12.879814 -11.877028 12.630624 -18.624321 -32.071713 -9.045110 42.758690 140.196156 -55.422120 -91.261000 19.715491 3.725432 4.498719 -7.771355 -52.200939 -0.998085 -64.784896 81.464926 -73.469230 -4.669508 -7.436752 7.914092 0.487523 -0.436253 0.172119 2.898373 -50.403878 -3.794356 32.471540 83.628820 37.502095 -1.520464 -9.280227 -1.900095 -0.061574 0.503742 -0.041599
-26.847884 51.932966 27.111726 -179.374259 -30.382168 0.043242 2.049873 27.358868 -0.644034 0.366932 4.751850 -0.092818 0.578262 7.517038 -0.133053 1.720034 22.213444 -0.173504 -4.463554 17.625176 -5.465213 -3.539818 -6.995665 -4.847511 11.962687 12.126883 15.137561 25.372820 -12.920436 -40.119093 -119.018497 -60.538473 59.298098 -12.525530 -6.443984 -12.761240 -11.856332 12.621351 -18.607161 -32.015681 -9.013103 42.748843 140.569392 -55.422648 -91.695579 19.715752 3.734872 4.476645 -7.745640 -52.099853 -0.999062 -64.769103 81.450699 -73.455559 -4.646801 -7.404181 7.883268 0.483023 -0.472142 0.175071 2.933033 -50.267355 -3.772023 32.308127 83.615543 37.323766 -1.521462 -9.304876 -1.891592 -0.057292 0.535844 -0.046405
-26.840935 51.930219 27.135963 -179.412860 -30.463554 0.074257 2.063430 27.368711 -0.651452 0.351939 4.671248 -0.084035 0.577818 7.500914 -0.134121 1.720233 22.194273 -0.177365 -4.474171 17.587526 -5.420258 -3.560600 -7.038670 -4.795565 11.913872 12.113501 15.151081 25.347331 -12.882802 -40.073910 -119.278935 -60.622282 59.653353 -12.535028 -6.412844 -12.637624 -11.829373 12.613211 -18.588793 -31.957752 -8.984223 42.739686 140.936397 -55.401070 -92.127564 19.724427 3.742315 4.485672 -7.824146 -52.050765 -0.951870 -64.683212 81.457719 -73.412986 -4.611340 -7.380054 7.862811 0.448830 -0.509755 0.169590 2.962651 -50.175847 -3.762894 32.048438 83.597354 37.048441 -1.531462 -9.340784 -1.862785 -0.049752 0.579194 -0.059969
-26.829850 51.933298 27.153688 -179.468296 -30.597525 0.094035 2.076935 27.329662 -0.631125 0.358375 4.695952 -0.089311 0.576968 7.485533 -0.135843 1.718958 22.176028 -0.183366 -4.479102 17.547666 -5.375523 -3.575188 -7.084261 -4.745078 11.871875 12.101381 15.161485 25.312498 -12.850921 -40.027808 -119.520507 -60.707074 59.993698 -12.545667 -6.381341 -12.507159 -11.797424 12.605014 -18.570354 -31.898420 -8.954549 42.729284 141.305577 -55.361891 -92.567807 19.742061 3.747402 4.529738 -7.783841 -51.923375 -0.958968 -64.600144 81.443575 -73.298810 -4.632127 -7.394466 7.836983 0.482940 -0.478140 0.158458 2.990983 -50.027062 -3.717962 31.774704 83.580631 36.760830 -1.544293 -9.370091 -1.826881 -0.047521 0.586402 -0.063453
-26.820130 51.937175 27.173353 -179.528601 -30.725072 0.130437 2.089428 27.290550 -0.624506 0.365184 4.720724 -0.095860 0.575549 7.470925 -0.138012 1.715865 22.158774 -0.190797 -4.478167 17.503758 -5.330792 -3.583403 -7.134341 -4.695836 11.832250 12.087462 15.172936 25.271133 -12.820399 -39.983188 -119.745152 -60.791754 60.315119 -12.557094 -6.347586 -12.363932 -11.763351 12.595582 -18.550371 -31.834565 -8.922462 42.715739 141.682530 -55.311744 -93.022791 19.765376 3.756997 4.593989 -7.788082 -51.813373 -0.940995 -64.517003 81.442777 -73.221823 -4.647050 -7.411384 7.803880 0.512392 -0.464274 0.162990 3.039273 -49.883767 -3.693512 31.502405 83.560574 36.467160 -1.549726 -9.387990 -1.783043 -0.053458 0.601653 -0.075926
-26.816125 51.940603 27.196869 -179.575110 -30.831895 0.199887 2.082272 27.273095 -0.661771 0.363805 4.711412 -0.096898 0.573420 7.457109 -0.139792 1.710401 22.142488 -0.197364 -4.475284 17.454173 -5.287324 -3.589184 -7.190505 -4.648423 11.790584 12.071611 15.182848 25.228055 -12.789331 -39.943169 -119.951313 -60.873906 60.613533 -12.569795 -6.312214 -12.208505 -11.731448 12.583713 -18.531297 -31.761954 -8.889861 42.697590 142.064444 -55.262078 -93.487189 19.791143 3.769352 4.659415 -7.759731 -51.728150 -0.981061 -64.459962 81.450440 -73.191065 -4.663276 -7.477784 7.843714 0.510625 -0.451121 0.139265 3.116959 -49.756895 -3.726039 31.161574 83.531091 36.099176 -1.569257 -9.396975 -1.745036 -0.043907 0.616153 -0.077341
-26.810556 51.946253 27.219419 -179.612311 -30.949523 0.260392 2.071520 27.271731 -0.690700 0.362130 4.702796 -0.097560 0.570867 7.444364 -0.140964 1.703624 22.127549 -0.202282 -4.472065 17.399631 -5.244606 -3.594333 -7.252092 -4.601886 11.748568 12.055440 15.188631 25.183084 -12.758469 -39.906222 -120.145649 -60.953291 60.894575 -12.581938 -6.272779 -12.044759 -11.703500 12.567695 -18.515009 -31.678247 -8.856431 42.673379 142.447935 -55.221811 -93.952849 19.815200 3.779171 4.715494 -7.747233 -51.636712 -1.011297 -64.427369 81.460436 -73.187600 -4.667545 -7.514242 7.852838 0.508087 -0.447679 0.126885 3.168027 -49.613779 -3.731381 30.744355 83.498061 35.643458 -1.598222 -9.416930 -1.712820 -0.025298 0.641904 -0.068758
-26.796459 51.948958 27.249249 -179.678763 -31.018302 0.289792 2.110278 27.224560 -0.668388 0.360479 4.694984 -0.098110 0.568315 7.432853 -0.141961 1.696955 22.114084 -0.206558 -4.467830 17.342293 -5.200377 -3.598691 -7.316791 -4.553931 11.708431 12.037774 15.194578 25.134731 -12.723917 -39.870544 -120.340729 -61.028785 61.168206 -12.592870 -6.225828 -11.876847 -11.677986 12.548645 -18.499045 -31.584571 -8.821698 42.643953 142.835037 -55.191871 -94.419461 19.831798 3.786703 4.759884 -7.875136 -51.600372 -0.918856 -64.205938 81.488366 -72.980687 -4.692009 -7.517139 7.756868 0.555503 -0.465299 0.149050 3.207097 -49.535031 -3.693872 30.485117 83.468770 35.366582 -1.589434 -9.413156 -1.692070 -0.039934 0.647120 -0.068213
-26.782681 51.953363 27.278426 -179.705197 -31.092752 0.304250 2.110004 27.186708 -0.653778 0.359280 4.688425 -0.098678 0.566445 7.423183 -0.142921 1.692155 22.102637 -0.210428 -4.462796 17.283473 -5.154522 -3.602634 -7.383085 -4.504388 11.669202 12.017099 15.202187 25.083435 -12.684759 -39.836642 -120.540967 -61.097617 61.442069 -12.603828 -6.175348 -11.718977 -11.654384 12.527774 -18.481191 -31.487241 -8.786730 42.610398 143.225050 -55.174482 -94.881643 19.840511 3.790391 4.791798 -7.938893 -51.543260 -0.888158 -64.009206 81.494675 -72.767615 -4.707809 -7.529369 7.671552 0.586531 -0.478742 0.186982 3.222201 -49.453132 -3.671800 30.364292 83.420368 35.227069 -1.578228 -9.386011 -1.673306 -0.076371 0.644385 -0.070774
-26.771635 51.960635 27.304696 -179.732834 -31.187025 0.338548 2.098769 27.173136 -0.660857 0.358374 4.683039 -0.099266 0.565043 7.415223 -0.143922 1.688428 22.093175 -0.214192 -4.456543 17.223905 -5.108738 -3.605228 -7.450170 -4.455146 11.631042 11.994888 15.209440 25.028068 -12.645446 -39.804323 -120.740619 -61.156052 61.714224 -12.614385 -6.128943 -11.582101 -11.632886 12.505451 -18.461419 -31.392626 -8.751271 42.573440 143.614098 -55.174807 -95.330731 19.846140 3.790078 4.811920 -7.973820 -51.462726 -0.885777 -63.850807 81.503519 -72.633351 -4.679831 -7.572380 7.680934 0.552905 -0.478482 0.166904 3.236418 -49.349969 -3.655802 30.148907 83.391895 34.986026 -1.586355 -9.365821 -1.676016 -0.079585 0.648233 -0.058975
-26.768615 51.967646 27.332905 -179.739999 -31.266155 0.412251 2.057016 27.201599 -0.730205 0.350388 4.627086 -0.086251 0.562641 7.407956 -0.145211 1.689075 22.146260 -0.229213 -4.449966 17.105017 -5.045361 -3.605120 -7.516124 -4.407397 11.586889 11.908771 15.218000 24.967520 -12.606923 -39.774740 -120.927012 -61.202560 61.972563 -12.623737 -6.092624 -11.469870 -11.614730 12.427047 -18.416012 -31.304458 -8.715078 42.535543 144.003467 -55.194142 -95.765796 19.849675 3.789775 4.823054 -7.966465 -51.399245 -0.965134 -63.660186 81.515342 -72.465896 -4.691456 -7.640957 7.726746 0.548908 -0.448792 0.117059 3.279479 -49.254068 -3.709876 30.122767 83.314406 34.917439 -1.639840 -9.308604 -1.678988 -0.068057 0.622467 -0.036188
-26.746670 51.975171 27.360789 -179.821206 -31.342344 0.411959 2.136731 27.225479 -0.672910 0.353570 4.624806 -0.084715 0.555333 7.349554 -0.132402 1.674663 22.107831 -0.230816 -4.438476 17.079436 -5.010303 -3.602749 -7.579228 -4.360975 11.552230 11.913900 15.227486 24.902103 -12.568295 -39.746467 -121.090779 -61.240631 62.210134 -12.630653 -6.066438 -11.382823 -11.594317 12.438479 -18.408066 -31.225351 -8.680021 42.496103 144.390775 -55.230493 -96.185015 19.850825 3.791680 4.826530 -8.011122 -51.325894 -0.894978 -63.393833 81.486819 -72.130193 -4.727155 -7.634602 7.623997 0.626096 -0.460715 0.146381 3.254758 -49.168564 -3.588855 29.901320 83.289801 34.666274 -1.618775 -9.304709 -1.690102 -0.077475 0.606206 -0.027420
